<?xml version="1.0" encoding="UTF-8"?>
<svg id="Layer_1" data-name="Layer 1" xmlns="http://www.w3.org/2000/svg" viewBox="0 0 566.93 566.93">
  <defs>
    <style>
      .cls-1 {
        fill: #000;
      }

      .cls-1, .cls-2 {
        stroke-width: 0px;
      }

      .cls-2 {
        fill: #fff;
      }
    </style>
  </defs>
  <rect class="cls-1" y="0" width="566.93" height="566.93"/>
  <g>
    <g>
      <path class="cls-2" d="M158.96,341.41c1.22-1.26,2.95-2.09,4.85-2.09,3.21,0,5.74,2.01,6.54,5.17h-2.01c-.74-2.11-2.47-3.17-4.53-3.17-1.34,0-2.57.58-3.45,1.5-.88.92-1.44,2.17-1.44,3.61s.56,2.65,1.44,3.57c.88.92,2.11,1.5,3.45,1.5,2.13,0,3.93-1.22,4.65-3.35h1.99c-.8,3.19-3.37,5.35-6.64,5.35-1.9,0-3.63-.8-4.85-2.09-1.2-1.28-2.01-3.05-2.01-4.99s.8-3.75,2.01-5.03Z"/>
      <path class="cls-2" d="M188.88,341.33c1.28-1.3,3.09-2.13,5.05-2.13s3.77.82,5.07,2.13c1.26,1.3,2.09,3.09,2.09,5.07s-.82,3.77-2.09,5.07c-1.3,1.32-3.09,2.13-5.07,2.13s-3.77-.8-5.05-2.13c-1.26-1.3-2.09-3.09-2.09-5.07s.82-3.77,2.09-5.07ZM197.56,342.77c-.94-.94-2.25-1.52-3.63-1.52s-2.67.58-3.59,1.52c-.92.92-1.5,2.21-1.5,3.63s.58,2.71,1.5,3.63c.92.94,2.21,1.52,3.59,1.52s2.69-.58,3.63-1.52c.9-.92,1.48-2.19,1.48-3.63s-.58-2.71-1.48-3.63Z"/>
      <path class="cls-2" d="M220.19,351.4h6.6v2.03h-8.62v-14.02h2.03v11.99Z"/>
      <path class="cls-2" d="M245.48,351.4h6.6v2.03h-8.62v-14.02h2.03v11.99Z"/>
      <path class="cls-2" d="M270.61,351.4h6.52v2.03h-8.56v-14.02h8.54v2.03h-6.5v3.95h6.36v2.05h-6.36v3.97Z"/>
      <path class="cls-2" d="M295.48,341.41c1.22-1.26,2.95-2.09,4.85-2.09,3.21,0,5.74,2.01,6.54,5.17h-2.01c-.74-2.11-2.47-3.17-4.53-3.17-1.34,0-2.57.58-3.45,1.5-.88.92-1.44,2.17-1.44,3.61s.56,2.65,1.44,3.57c.88.92,2.11,1.5,3.45,1.5,2.13,0,3.93-1.22,4.65-3.35h1.99c-.8,3.19-3.37,5.35-6.64,5.35-1.9,0-3.63-.8-4.85-2.09-1.2-1.28-2.01-3.05-2.01-4.99s.8-3.75,2.01-5.03Z"/>
      <path class="cls-2" d="M326.78,353.48v-12.21h-4.25v-1.88h10.51v1.88h-4.23v12.21h-2.03Z"/>
      <path class="cls-2" d="M356.69,341.41h-2.61v9.99h2.61v2.03h-7.24v-2.03h2.61v-9.99h-2.61v-2.01h7.24v2.01Z"/>
      <path class="cls-2" d="M383.16,339.4h2.17l-5.63,14.06h-1.48l-5.64-14.06h2.21l4.17,10.49,4.21-10.49Z"/>
      <path class="cls-2" d="M403.46,351.4h6.52v2.03h-8.56v-14.02h8.54v2.03h-6.5v3.95h6.36v2.05h-6.36v3.97Z"/>
    </g>
    <path class="cls-2" d="M198.26,247.47c-22.49-.49-41.31,17.91-41.31,40.4,0,8.37,2.56,16.15,6.93,22.61l.12-.12c5.21-5.21,7.54-12.5,6.82-19.83-.09-.88-.13-1.77-.13-2.66,0-7.11,2.77-13.81,7.82-18.85,5.05-5.05,11.74-7.82,18.85-7.82,7.11,0,13.81,2.77,18.85,7.82,5.42,5.42,8.23,12.75,7.78,20.44-.77,13.2-11.37,24-24.55,25-2.19.17-4.34.07-6.44-.27-7.17-1.18-14.47,1.06-19.61,6.2h0c7.67,5.67,17.41,8.7,27.86,7.71,19.24-1.82,34.67-17.36,36.35-36.61,2.06-23.6-16.3-43.52-39.36-44.02Z"/>
    <path class="cls-2" d="M402.95,265.17l-.13.13c-5.21,5.21-7.54,12.52-6.81,19.85.09.88.13,1.77.13,2.67,0,7.12-2.78,13.83-7.84,18.88-5.05,5.06-11.76,7.84-18.88,7.84s-13.82-2.78-18.87-7.84c-5.44-5.44-8.25-12.78-7.79-20.49.74-12.55,12.05-24.07,24.59-25.02,2.18-.16,4.34-.07,6.43.27,7.18,1.18,14.5-1.06,19.64-6.2h0c-7.67-5.68-17.43-8.71-27.88-7.72-19.26,1.81-34.71,17.37-36.41,36.64-2.08,23.66,16.33,43.62,39.44,44.1s41.33-17.94,41.33-40.46c0-8.38-2.56-16.17-6.94-22.65Z"/>
    <path class="cls-2" d="M140.07,259.32c-11.25-11.25-27.51-14.49-41.65-9.74h0c0,6.57,5.42,11.92,11.99,11.68.33-.01.66-.02.99-.02,7.16,0,13.88,2.77,18.93,7.82,5.04,5.05,7.82,11.76,7.82,18.93s-2.78,13.88-7.83,18.93c-5.04,5.05-11.76,7.83-18.93,7.83s-13.88-2.78-18.93-7.83c-4.64-4.64-7.22-10.58-7.72-16.65-.06-.61-.09-1.23-.1-1.84,0-.28,0-.57,0-.86v-60.47c0-7.61-6.17-13.78-13.78-13.78h0v74.67c0,.27,0,.53,0,.81.19,10.11,4.14,20.16,11.84,27.86,15.81,15.81,41.53,15.81,57.35,0,15.81-15.81,15.81-41.53,0-57.34Z"/>
    <path class="cls-2" d="M70.87,287.99c0,.27,0,.53,0,.81h0v-.81Z"/>
    <path class="cls-2" d="M256.62,272.11c.47,5.16,5,9,10.18,9h33.35c9.55,0,17.77,5.64,21.54,13.78,1.41,3.06,2.19,6.46,2.18,10.05-.06,13.14-11.11,23.59-24.25,23.59h-56.81c0-7.61,6.17-13.78,13.78-13.78h43.25c5.46,0,10.15-4.27,10.26-9.74s-4.39-10.13-9.93-10.13h-33.63c-3.55,0-6.91-.78-9.94-2.18-5.11-2.36-9.24-6.48-11.6-11.6-1.4-3.02-2.18-6.39-2.18-9.94s.78-6.9,2.18-9.93c2.36-5.11,6.49-9.24,11.6-11.6,3.02-1.4,6.39-2.18,9.94-2.18h57.35c0,7.61-6.17,13.78-13.78,13.78h-43.57c-5.79,0-10.44,4.96-9.89,10.87Z"/>
    <path class="cls-2" d="M496.06,314.2v.55c0,7.61-6.17,13.78-13.78,13.78h0v-13.76c0-29.56-23.96-53.52-53.52-53.52h0v53.5c0,7.61-6.17,13.79-13.79,13.79h0v-81.18h14.23c36.92,0,66.85,29.93,66.85,66.85Z"/>
  </g>
</svg>